<svg width="100" height="48" viewBox="0 0 100 48" fill="none" xmlns="http://www.w3.org/2000/svg">
<rect x="38.5" y="12.5" width="23" height="23" rx="5.5" fill="#EDEDFC"/>
<rect x="38.5" y="12.5" width="23" height="23" rx="5.5" stroke="#807CEA" stroke-dasharray="4 2"/>
<path fill-rule="evenodd" clip-rule="evenodd" d="M50 18.75C50.3624 18.75 50.6562 19.0438 50.6562 19.4062V23.3438H54.5937C54.9562 23.3438 55.25 23.6376 55.25 24C55.25 24.3624 54.9562 24.6563 54.5937 24.6563H50.6562V28.5937C50.6562 28.9562 50.3624 29.25 50 29.25C49.6376 29.25 49.3437 28.9562 49.3437 28.5937V24.6563H45.4062C45.0438 24.6563 44.75 24.3624 44.75 24C44.75 23.6376 45.0438 23.3438 45.4062 23.3438H49.3437V19.4062C49.3437 19.0438 49.6376 18.75 50 18.75Z" fill="#464F60"/>
</svg>
